# AST/ASF file generated using VICON BodyLanguage
# -----------------------------------------------
:version 1.10
:name VICON
:units
  mass 1.0
  length 0.45
  angle deg
:documentation
   .ast/.asf automatically generated from VICON data using
   VICON BodyBuilder and BodyLanguage model FoxedUp or BRILLIANT.MOD
:root
   order TX TY TZ RX RY RZ
   axis XYZ
   position 0 0 0  
   orientation 0 0 0 
:bonedata
  begin
     id 1 
     name lhipjoint
     direction 0.547975 -0.797114 0.253638 
     length 2.36201 
     axis 0 0 0  XYZ
  end
  begin
     id 2 
     name lfemur
     direction 0.34202 -0.939693 0  
     length 7.69075  
     axis 0 0 20  XYZ
    dof rx ry rz
    limits (-160.0 20.0)
           (-70.0 70.0)
           (-60.0 70.0)
  end
  begin
     id 3 
     name ltibia
     direction 0.34202 -0.939693 0   
     length 7.91399   
     axis 0 0 20   XYZ
    dof rx
    limits (-10.0 170.0)
  end
  begin
     id 4 
     name lfoot
     direction 0.0705293 -0.193778 0.978507   
     length 2.13618   
     axis -90 7.62852e-016 20   XYZ
    dof rx rz
    limits (-45.0 90.0)
           (-70.0 20.0)
  end
  begin
     id 5 
     name ltoes
     direction 1.53592e-011 -4.21925e-011 1   
     length 1.07518   
     axis -90 7.62852e-016 20   XYZ
    dof rx
    limits (-90.0 20.0)
  end
  begin
     id 6 
     name rhipjoint
     direction -0.57 -0.782963 0.249136   
     length 2.4047  
     axis 0 0 0  XYZ 
  end
  begin
     id 7 
     name rfemur
     direction -0.34202 -0.939693 0   
     length 7.51486   
     axis 0 0 -20   XYZ
    dof rx ry rz
    limits (-160.0 20.0)
           (-70.0 70.0)
           (-70.0 60.0)
  end
  begin
     id 8 
     name rtibia
     direction -0.34202 -0.939693 0   
     length 8.08317   
     axis 0 0 -20   XYZ
    dof rx
    limits (-10.0 170.0)
 end
 begin
     id 9 
     name rfoot
     direction -0.104954 -0.281256 0.953876   
     length 2.30343  
     axis -90 -7.62852e-016 -20   XYZ
    dof rx rz
    limits (-45.0 90.0)
           (-20.0 70.0)
  end
  begin
     id 10 
     name rtoes
     direction -1.53556e-011 -4.21922e-011 1   
     length 1.14803   
     axis -90 -7.62852e-016 -20   XYZ
    dof rx
    limits (-90.0 20.0)
  end
  begin
     id 11 
     name lowerback
     direction -0.0152855 0.99353 -0.11254   
     length 2.05311   
     axis 0 0 0   XYZ
    dof rx ry rz
    limits (-20.0 45.0)
           (-30.0 30.0)
           (-30.0 30.0)
  end
  begin
     id 12 
     name upperback
     direction -0.00157509 0.999443 -0.033332   
     length 2.06353   
     axis 0 0 0   XYZ
    dof rx ry rz
    limits (-20.0 45.0)
           (-30.0 30.0)
           (-30.0 30.0)
  end
  begin
     id 13 
     name thorax
     direction 0.00577788 0.999804 0.0189484   
     length 2.08472   
     axis 0 0 0   XYZ
    dof rx ry rz
    limits (-20.0 45.0)
           (-30.0 30.0)
           (-30.0 30.0)
  end
  begin
     id 14 
     name lowerneck
     direction -1.09301e-005 0.994719 0.10264   
     length 1.76249   
     axis 0 0 0   XYZ
    dof rx ry rz
    limits (-20.0 45.0)
           (-30.0 30.0)
           (-30.0 30.0)
  end
  begin
     id 15 
     name upperneck
     direction 0.0495018 0.988526 -0.142706   
     length 1.77897   
     axis 0 0 0   XYZ
    dof rx ry rz
    limits (-20.0 45.0)
           (-30.0 30.0)
           (-30.0 30.0)
  end
  begin
     id 16
     name head
     direction 0.0142736 0.998114 -0.0597101  
     length 1.78934  
     axis 0 0 0   XYZ
    dof rx ry rz
    limits (-20.0 45.0)
           (-30.0 30.0)
           (-30.0 30.0)
  end
  begin
     id 17 
     name lclavicle
     direction 0.918111 0.396107 -0.0130883  
     length 3.37276  
     axis 0 0 0   XYZ
    dof ry rz
    limits (-20.0 10.0)
           (0.0 20.0)
  end
  begin
     id 18 
     name lhumerus
     direction 1 -4.48975e-011 -3.26108e-027   
     length 5.34298   
     axis 180 -30 -90   XYZ
    dof rx ry rz
    limits (-60.0 90.0)
           (-90.0 90.0)
           (-90.0 90.0)
  end
  begin
     id 19
     name lradius
     direction 1 -4.48964e-011 -8.84413e-028   
     length 3.67262   
     axis 180 -30 -90   XYZ
    dof rx
    limits (-10.0 170.0)
  end
  begin
     id 20
     name lwrist
     direction 1 -4.48991e-011 -1.24264e-027   
     length 1.83631   
     axis -2.17013e-015 90 90   XYZ
    dof ry
    limits (-180.0 0.0)
 end
  begin
     id 21 
     name lhand
     direction 1 -4.48855e-011 -2.48528e-027   
     length 0.599298   
     axis 1.58582e-015 90 90   XYZ
    dof rx rz
    limits (-90.0 90.0)
           (-45.0 45.0)
  end
  begin
     id 22 
     name lfingers
     direction 1 -4.48811e-011 -4.97056e-027   
     length 0.48317   
     axis 3.17164e-015 90 90   XYZ
    dof rx
    limits (0.0 90.0)
  end
  begin
     id 23
     name lthumb
     direction 0.707107 -6.34882e-011 0.707107   
     length 0.693738   
     axis -90 45 2.85299e-015   XYZ
    dof rx rz
    limits (-45.0 45.0)
           (-45.0 45.0)
  end
  begin
     id 24 
     name rclavicle
     direction -0.920511 0.384752 -0.0680135   
     length 3.43787  
     axis 0 0 0   XYZ 
    dof ry rz
    limits (-10.0 20.0)
           (-20.0 0.0)
  end
  begin
     id 25 
     name rhumerus
     direction -0.999976 -0.00330524 0.00603274  
     length 5.5498   
     axis 180 30 90   XYZ
    dof rx ry rz
    limits (-90.0 60.0)
           (-90.0 90.0)
           (-90.0 90.0)
  end
  begin
     id 26 
     name rradius
     direction -1 -4.48967e-011 8.62438e-027   
     length 3.69401   
     axis 180 30 90   XYZ
    dof rx
    limits (-10.0 170.0)
  end
  begin
     id 27 
     name rwrist
     direction -1 -4.4897e-011 9.54866e-027   
     length 1.84701   
     axis -7.69462e-015 -90 -90   XYZ
    dof ry
    limits (-180.0 0.0)
  end
  begin
     id 28
     name rhand
     direction -1 -4.48982e-011 1.90973e-026   
     length 0.638113   
     axis -1.21857e-014 -90 -90   XYZ
    dof rx rz
    limits (-90.0 90.0)
           (-45.0 45.0)
  end
  begin
     id 29
     name rfingers
     direction -1 -4.48936e-011 3.81946e-026   
     length 0.514463   
     axis -2.43714e-014 -90 -90   XYZ
    dof rx
    limits (0.0 90.0)
  end
  begin
     id 30
     name rthumb
     direction -0.707107 -6.34942e-011 0.707107   
     length 0.738669   
     axis -90 -45 -2.85299e-015   XYZ
    dof rx rz
    limits (-45.0 45.0)
           (-45.0 45.0)
  end
:hierarchy
  begin
    root lhipjoint rhipjoint lowerback
    lhipjoint lfemur
    lfemur ltibia
    ltibia lfoot
    lfoot ltoes
    rhipjoint rfemur
    rfemur rtibia
    rtibia rfoot
    rfoot rtoes
    lowerback upperback
    upperback thorax
    thorax lowerneck lclavicle rclavicle
    lowerneck upperneck
    upperneck head
    lclavicle lhumerus
    lhumerus lradius
    lradius lwrist
    lwrist lhand lthumb
    lhand lfingers
    rclavicle rhumerus
    rhumerus rradius
    rradius rwrist
    rwrist rhand rthumb
    rhand rfingers
  end

#!OML:ASF F:\twosubjects\two\Thursday\Session 1\Rory.ASF
:FULLY-SPECIFIED
:DEGREES
130
root 7.44545 10.7902 7.28684 170.359 -5.04403 -178.212
lowerback 30.2447 1.87244 -0.272281
upperback 10.8107 -0.743649 -1.6489
thorax -4.43585 -1.5632 -1.32939
lowerneck -10.2323 -4.26396 -4.69463
upperneck 2.38992 -5.48823 5.77959
head 2.92346 -2.61787 2.41883
rclavicle -7.55382e-015 -3.97569e-015
rhumerus 18.4558 10.5955 -75.8035
rradius 74.2117
rwrist 23.2328
rhand -17.3293 24.6994
rfingers 7.12502
rthumb 8.9176 -5.09217
lclavicle -7.55382e-015 -3.97569e-015
lhumerus 30.2273 -27.0158 61.9185
lradius 72.9033
lwrist -18.484
lhand -15.187 27.7106
lfingers 7.12502
lthumb 10.9844 57.4032
rfemur -64.1728 -17.8358 -5.91334
rtibia 109.023
rfoot -21.3117 -3.05207
rtoes -21.7406
lfemur -60.409 25.1348 8.12295
ltibia 113.52
lfoot -27.7341 -5.39645
ltoes -17.73
131
root 7.44464 10.7785 7.2894 170.158 -4.95223 -177.812
lowerback 30.2324 1.80796 0.141612
upperback 10.9004 -0.722553 -1.51672
thorax -4.32363 -1.55785 -1.43023
lowerneck -10.4077 -4.30932 -4.80762
upperneck 2.23719 -5.53279 5.82867
head 2.91348 -2.64163 2.45096
rclavicle 1.19271e-014 -3.18055e-014
rhumerus 18.2904 10.2156 -77.0662
rradius 74.0574
rwrist 23.317
rhand -18.2282 25.5078
rfingers 7.12502
rthumb 8.0501 -4.31892
lclavicle 1.19271e-014 -3.18055e-014
lhumerus 29.8413 -26.6156 62.8187
lradius 72.9378
lwrist -20.7358
lhand -14.8014 27.1621
lfingers 7.12502
lthumb 11.3563 56.8346
rfemur -63.9035 -17.7102 -5.39756
rtibia 108.935
rfoot -21.2563 -3.73228
rtoes -23.832
lfemur -60.1674 25.2891 8.75598
ltibia 113.531
lfoot -27.6627 -5.28549
ltoes -17.8004
132
root 7.44612 10.7707 7.29467 169.937 -4.82049 -177.678
lowerback 30.2347 1.73506 0.146152
upperback 10.9439 -0.825431 -1.40209
thorax -4.27695 -1.61843 -1.27275
lowerneck -10.4216 -4.21484 -5.07636
upperneck 2.17154 -5.36596 5.77017
head 2.89198 -2.56404 2.49163
rclavicle -2.78299e-015 -1.59028e-014
rhumerus 18.2319 10.0425 -78.3113
rradius 73.9989
rwrist 23.9604
rhand -18.6342 26.1889
rfingers 7.12502
rthumb 7.6582 -3.6524
lclavicle -2.78299e-015 -1.59028e-014
lhumerus 29.3364 -25.8176 63.8999
lradius 72.5266
lwrist -24.1704
lhand -14.1202 26.4462
lfingers 7.12502
lthumb 12.0132 56.0815
rfemur -63.7077 -17.5409 -5.28186
rtibia 108.925
rfoot -21.342 -3.59731
rtoes -23.5016
lfemur -59.854 25.3971 9.10317
ltibia 113.525
lfoot -27.5947 -5.15111
ltoes -17.8866
133
root 7.44633 10.773 7.30308 169.845 -4.60538 -177.313
lowerback 30.2168 1.57751 0.447314
upperback 10.7027 -0.862838 -1.37215
thorax -4.54024 -1.6012 -1.39704
lowerneck -9.66234 -4.05482 -5.00437
upperneck 2.05014 -5.16849 5.6235
head 2.68703 -2.47619 2.44994
rclavicle 3.18055e-015 -1.11319e-014
rhumerus 17.7499 9.51803 -79.853
rradius 73.971
rwrist 25.077
rhand -18.45 26.3841
rfingers 7.12502
rthumb 7.83599 -3.45071
lclavicle 3.18055e-015 -1.11319e-014
lhumerus 28.1673 -25.676 64.692
lradius 72.6166
lwrist -26.2335
lhand -14.7398 26.8357
lfingers 7.12502
lthumb 11.4157 56.5049
rfemur -63.7439 -17.2429 -4.90051
rtibia 108.962
rfoot -21.4741 -2.95736
rtoes -21.1204
lfemur -59.7149 25.5529 9.63866
ltibia 113.499
lfoot -27.6646 -5.32433
ltoes -18.424
134
root 7.44074 10.7718 7.3215 169.269 -4.73917 -178.593
lowerback 30.8271 1.78112 -0.624685
upperback 10.8143 -1.06176 -1.82272
thorax -4.70773 -1.75228 -1.20387
lowerneck -9.67031 -3.95881 -4.60215
upperneck 2.05803 -5.07939 5.43523
head 2.66299 -2.43388 2.31729
rclavicle 3.18055e-015 2.38542e-014
rhumerus 17.7878 8.76469 -81.2713
rradius 73.8601
rwrist 26.3456
rhand -17.7092 25.7993
rfingers 7.12502
rthumb 8.55094 -4.00756
lclavicle 3.18055e-015 2.38542e-014
lhumerus 27.4489 -25.8306 64.7981
lradius 73.0096
lwrist -26.3904
lhand -16.246 27.3912
lfingers 7.12502
lthumb 9.96279 57.1354
rfemur -63.2691 -17.4882 -6.71179
rtibia 109.022
rfoot -21.4213 -1.71939
rtoes -19.0724
lfemur -58.9237 24.6888 8.2811
ltibia 113.448
lfoot -27.912 -4.72373
ltoes -18.8218
135
root 7.4476 10.7724 7.32714 169.375 -4.52055 -178.176
lowerback 30.5155 1.67141 -0.43632
upperback 10.7895 -1.10251 -1.72268
thorax -4.59343 -1.75824 -1.19247
lowerneck -9.89416 -3.88067 -4.4132
upperneck 2.17069 -4.98182 5.21281
head 2.72181 -2.38689 2.21102
rclavicle 5.56597e-015 -1.27222e-014
rhumerus 18.0969 8.57964 -82.2575
rradius 73.5667
rwrist 27.061
rhand -17.1241 25.2908
rfingers 7.12502
rthumb 9.11559 -4.49218
lclavicle 5.56597e-015 -1.27222e-014
lhumerus 26.8412 -25.6674 65.2251
lradius 73.1859
lwrist -25.9612
lhand -17.4904 27.3186
lfingers 7.12502
lthumb 8.76214 57.1167
rfemur -63.5169 -17.2129 -5.97841
rtibia 108.947
rfoot -21.3574 -2.40841
rtoes -20.788
lfemur -59.0048 25.011 8.84928
ltibia 113.43
lfoot -27.8544 -5.12035
ltoes -18.4556
136
root 7.43917 10.7694 7.33316 169.653 -4.40658 -177.315
lowerback 30.1554 1.26549 0.364677
upperback 10.6522 -1.28829 -1.48898
thorax -4.58488 -1.80437 -1.3383
lowerneck -10.1082 -3.75528 -4.63607
upperneck 2.27961 -4.77272 5.06603
head 2.79031 -2.28623 2.21318
rclavicle -7.55382e-015 -1.43125e-014
rhumerus 18.2216 8.96519 -82.8726
rradius 73.3847
rwrist 26.9647
rhand -16.7092 25.2654
rfingers 7.12502
rthumb 9.51595 -4.49969
lclavicle -7.55382e-015 -1.43125e-014
lhumerus 26.2764 -25.1664 65.9634
lradius 72.9221
lwrist -25.908
lhand -18.2172 27.2484
lfingers 7.12502
lthumb 8.06076 57.0747
rfemur -63.7896 -17.0472 -4.79601
rtibia 108.781
rfoot -21.2378 -3.35024
rtoes -23.0966
lfemur -59.5968 25.2821 9.68553
ltibia 113.514
lfoot -27.6745 -5.51195
ltoes -18.0312
137
root 7.44063 10.7603 7.3407 169.425 -4.59293 -178.72
lowerback 30.3919 1.50078 -0.982054
upperback 10.6663 -1.44463 -1.81757
thorax -4.6833 -1.91519 -0.868894
lowerneck -10.2366 -3.61066 -4.78641
upperneck 2.37551 -4.55366 5.00812
head 2.8386 -2.17829 2.23398
rclavicle -1.86858e-014 -2.94201e-014
rhumerus 18.0427 9.22435 -83.2987
rradius 73.3112
rwrist 26.7294
rhand -16.5473 25.6984
rfingers 7.12502
rthumb 9.67211 -4.05957
lclavicle -1.86858e-014 -2.94201e-014
lhumerus 25.8412 -24.9551 66.4994
lradius 72.5544
lwrist -26.2181
lhand -19.0085 27.1145
lfingers 7.12502
lthumb 7.29691 56.9687
rfemur -63.6238 -17.5696 -6.55678
rtibia 108.84
rfoot -21.1285 -2.68133
rtoes -24.292
lfemur -59.2319 24.652 8.09698
ltibia 113.526
lfoot -27.7853 -4.78971
ltoes -18.1981
138
root 7.44578 10.7571 7.34881 169.452 -4.61641 -179.353
lowerback 30.3423 1.60102 -1.5905
upperback 10.5462 -1.47975 -2.03309
thorax -4.79761 -1.92565 -0.743767
lowerneck -10.362 -3.5192 -4.6772
upperneck 2.69402 -4.43757 4.9194
head 2.95826 -2.11651 2.19106
rclavicle -1.15295e-014 -1.82882e-014
rhumerus 17.9582 9.43591 -83.6678
rradius 72.9056
rwrist 26.8549
rhand -16.5595 26.1061
rfingers 7.12502
rthumb 9.66041 -3.65238
lclavicle -1.15295e-014 -1.82882e-014
lhumerus 25.2411 -24.8759 66.9603
lradius 72.4709
lwrist -26.4492
lhand -19.5607 26.7771
lfingers 7.12502
lthumb 6.76388 56.6491
rfemur -63.7141 -17.9165 -7.22244
rtibia 108.844
rfoot -21.0482 -2.37616
rtoes -25.4435
lfemur -59.1776 24.5294 7.36886
ltibia 113.512
lfoot -27.7623 -4.35088
ltoes -18.4373
139
root 7.44805 10.7594 7.35586 169.56 -4.5857 -179.492
lowerback 30.1254 1.51879 -1.66823
upperback 10.3826 -1.55273 -2.1923
thorax -4.88698 -1.93241 -0.852202
lowerneck -10.4571 -3.44168 -4.34927
upperneck 3.07593 -4.35891 4.6548
head 3.08293 -2.07604 2.04671
rclavicle 9.54166e-015 5.56597e-015
rhumerus 17.9228 9.70766 -83.979
rradius 72.329
rwrist 27.2769
rhand -16.8139 25.7902
rfingers 7.12502
rthumb 9.41489 -3.97955
lclavicle 9.54166e-015 5.56597e-015
lhumerus 24.2475 -24.667 67.4059
lradius 72.8994
lwrist -26.571
lhand -19.5175 26.2392
lfingers 7.12502
lthumb 6.80557 56.1098
rfemur -63.8287 -18.0057 -7.28059
rtibia 108.805
rfoot -20.9963 -2.39582
rtoes -25.0713
lfemur -59.2905 24.4987 7.17317
ltibia 113.514
lfoot -27.6297 -4.56864
ltoes -17.6851
140
root 7.44762 10.7605 7.36125 169.488 -4.53623 -179.135
lowerback 29.8929 1.37305 -1.2302
upperback 10.3133 -1.56196 -2.1889
thorax -4.86272 -1.91194 -1.10113
lowerneck -10.2529 -3.3768 -4.04216
upperneck 3.10107 -4.30084 4.41357
head 3.03091 -2.0521 1.91488
rclavicle -3.57812e-015 0
rhumerus 17.7411 9.81301 -84.1017
rradius 71.9384
rwrist 27.8977
rhand -17.2776 25.132
rfingers 7.12502
rthumb 8.96749 -4.65744
lclavicle -3.57812e-015 0
lhumerus 23.1518 -24.4898 67.7974
lradius 73.7138
lwrist -26.875
lhand -19.4055 25.6141
lfingers 7.12502
lthumb 6.9137 55.4812
rfemur -63.8676 -17.8661 -6.85103
rtibia 108.844
rfoot -20.9312 -2.48923
rtoes -24.2395
lfemur -59.3637 24.4987 7.63114
ltibia 113.575
lfoot -27.4834 -5.15526
ltoes -16.2012
141
root 7.44674 10.7568 7.36638 169.335 -4.43121 -178.507
lowerback 29.6892 1.23458 -0.591892
upperback 10.3668 -1.53398 -2.05763
thorax -4.71001 -1.88842 -1.33824
lowerneck -10.2052 -3.35632 -3.76622
upperneck 2.97841 -4.29547 4.18757
head 2.96234 -2.05574 1.78946
rclavicle -1.51076e-014 -7.95139e-016
rhumerus 17.774 9.86956 -84.1405
rradius 71.6666
rwrist 28.4012
rhand -17.1486 24.9006
rfingers 7.12502
rthumb 9.09197 -4.88346
lclavicle -1.51076e-014 -7.95139e-016
lhumerus 22.9521 -24.2742 68.0323
lradius 73.5688
lwrist -27.1472
lhand -19.6182 25.2064
lfingers 7.12502
lthumb 6.70836 55.0801
rfemur -63.9018 -17.6294 -6.19559
rtibia 108.979
rfoot -21.0302 -2.16935
rtoes -21.8149
lfemur -59.3739 24.5625 8.49312
ltibia 113.679
lfoot -27.2917 -5.53602
ltoes -14.2477
142
root 7.44551 10.7528 7.36889 169.351 -4.33117 -177.947
lowerback 29.3508 0.974654 -0.129359
upperback 10.3 -1.66968 -1.92339
thorax -4.63265 -1.92802 -1.41831
lowerneck -10.097 -3.22312 -3.72338
upperneck 2.97848 -4.1141 4.02445
head 2.927 -1.97098 1.73945
rclavicle -2.18663e-014 -2.94201e-014
rhumerus 17.7457 10.3114 -84.3092
rradius 71.4646
rwrist 28.4545
rhand -16.5559 25.0232
rfingers 7.12502
rthumb 9.66388 -4.73511
lclavicle -2.18663e-014 -2.94201e-014
lhumerus 23.0319 -23.8516 68.2287
lradius 72.5584
lwrist -27.0723
lhand -19.9341 24.8615
lfingers 7.12502
lthumb 6.40345 54.7447
rfemur -64.0096 -17.4761 -5.58729
rtibia 109.067
rfoot -21.1327 -1.80809
rtoes -19.0754
lfemur -59.4815 24.5963 9.20554
ltibia 113.77
lfoot -27.126 -5.74994
ltoes -12.8093
